<?xml version="1.0" encoding="UTF-8" standalone="no"?>
<!-- Created with Inkscape (http://www.inkscape.org/) -->

<svg
   xmlns:dc="http://purl.org/dc/elements/1.1/"
   xmlns:cc="http://creativecommons.org/ns#"
   xmlns:rdf="http://www.w3.org/1999/02/22-rdf-syntax-ns#"
   xmlns:svg="http://www.w3.org/2000/svg"
   xmlns="http://www.w3.org/2000/svg"
   xmlns:sodipodi="http://sodipodi.sourceforge.net/DTD/sodipodi-0.dtd"
   xmlns:inkscape="http://www.inkscape.org/namespaces/inkscape"
   version="1.0"
   width="210mm"
   height="297mm"
   viewBox="0 0 210 297"
   id="svg2446"
   xml:space="preserve"
   style="fill-rule:evenodd"
   inkscape:version="0.48.4 r9939"
   sodipodi:docname="Parrot silhouette vector pattern.svg"><title
   id="title2991">Parrot silhouette vector pattern</title><metadata
   id="metadata14"><rdf:RDF><cc:Work
       rdf:about=""><dc:format>image/svg+xml</dc:format><dc:type
         rdf:resource="http://purl.org/dc/dcmitype/StillImage" /><dc:title>Parrot silhouette vector pattern</dc:title><dc:subject><rdf:Bag><rdf:li>Parrot silhouette</rdf:li><rdf:li>parrot vector</rdf:li><rdf:li>parrot pattern</rdf:li></rdf:Bag></dc:subject><dc:creator><cc:Agent><dc:title>www.craftsmanspace.com</dc:title></cc:Agent></dc:creator><dc:publisher><cc:Agent><dc:title>www.craftsmanspace.com</dc:title></cc:Agent></dc:publisher><cc:license
         rdf:resource="http://creativecommons.org/licenses/by-sa/3.0/" /></cc:Work><cc:License
       rdf:about="http://creativecommons.org/licenses/by-sa/3.0/"><cc:permits
         rdf:resource="http://creativecommons.org/ns#Reproduction" /><cc:permits
         rdf:resource="http://creativecommons.org/ns#Distribution" /><cc:requires
         rdf:resource="http://creativecommons.org/ns#Notice" /><cc:requires
         rdf:resource="http://creativecommons.org/ns#Attribution" /><cc:permits
         rdf:resource="http://creativecommons.org/ns#DerivativeWorks" /><cc:requires
         rdf:resource="http://creativecommons.org/ns#ShareAlike" /></cc:License></rdf:RDF></metadata><sodipodi:namedview
   pagecolor="#ffffff"
   bordercolor="#666666"
   borderopacity="1"
   objecttolerance="10"
   gridtolerance="10"
   guidetolerance="10"
   inkscape:pageopacity="0"
   inkscape:pageshadow="2"
   inkscape:window-width="1920"
   inkscape:window-height="1018"
   id="namedview12"
   showgrid="false"
   inkscape:zoom="0.63429569"
   inkscape:cx="277.16667"
   inkscape:cy="453.12202"
   inkscape:window-x="-8"
   inkscape:window-y="-8"
   inkscape:window-maximized="1"
   inkscape:current-layer="svg2446" />
 <defs
   id="defs2448">
  <style
   type="text/css"
   id="style2450" />
 
  
  
  
  
  
  
 </defs>
 <path
   d="M 444.49354,92.729772 C 445.33304,92.016987 446.17253,91.304259 446.99613,90.274725 C 447.81977,89.245134 448.62758,87.898851 449.2849,86.441646 C 449.94223,84.984441 450.44907,83.416371 450.63911,81.824532 C 450.8292,80.232693 450.70249,78.617142 450.33821,76.993611 C 449.97386,75.37008 449.372,73.738683 448.41371,72.130998 C 447.45549,70.52337 446.14084,68.939454 445.23009,68.036631 C 444.31935,67.133751 443.8125,66.912021 443.4957,66.745695 C 443.17889,66.579426 443.05218,66.468561 443.0047,66.310158 C 442.95716,66.151755 442.98885,65.945871 443.0601,65.581527 C 443.13141,65.21724 443.24228,64.69455 443.1631,64.10061 C 443.08387,63.506613 442.81461,62.841366 442.17313,62.049408 C 441.53165,61.25745 440.51796,60.338781 438.72024,59.554746 C 436.92246,58.770711 434.3407,58.12131 431.24418,57.931272 C 428.14759,57.741177 424.5363,58.010445 420.96457,58.644 C 417.39289,59.277612 413.86077,60.275454 410.68502,61.233738 C 407.50926,62.191965 404.68993,63.110634 402.35367,63.807573 C 400.01735,64.504512 398.16422,64.979664 396.51693,65.320182 C 394.86968,65.660757 393.42832,65.866641 391.00491,66.207216 C 388.58156,66.547734 385.17615,67.022886 381.44607,67.506018 C 377.71593,67.989093 373.66112,68.480091 370.23194,69.082011 C 366.80277,69.683874 363.99928,70.396659 360.34045,71.521212 C 356.68162,72.645765 352.16745,74.1822 347.25735,76.470921 C 342.34726,78.759699 337.04113,81.800763 332.76459,84.572616 C 328.488,87.344469 325.24099,89.847054 322.66715,91.95366 C 320.09332,94.060266 318.1926,95.770836 316.14938,97.655712 C 314.1061,99.540588 311.92032,101.59966 309.73454,103.65872"
   id="path2454"
   style="fill:none;stroke:#1f1a17;stroke-width:0.2;stroke-linecap:round;stroke-linejoin:round;stroke-miterlimit:4;stroke-dasharray:none" /><path
   d="M 309.73431,103.65895 C 308.56222,102.12257 307.39013,100.5862 306.10717,98.764704 C 304.82422,96.943212 303.43034,94.836606 302.4008,93.292248 C 301.37127,91.747947 300.70602,90.765951 300.0487,89.894763 C 299.39138,89.023632 298.74198,88.263366 297.93417,87.772368 C 297.12637,87.281313 296.16022,87.059583 295.33657,86.877411 C 294.51292,86.695296 293.83188,86.552739 293.29334,86.616066 C 292.75481,86.67945 292.35883,86.948718 292.08164,87.384312 C 291.80445,87.819849 291.64605,88.421769 291.59064,88.960305 C 291.53518,89.498784 291.58272,89.973993 291.51933,90.26703 C 291.45601,90.56001 291.28176,90.670875 291.09172,90.781797 C 290.90163,90.892662 290.69574,91.003527 290.48188,91.241103 C 290.26807,91.478679 290.04634,91.843023 290.10174,92.199387 C 290.15721,92.555751 290.4898,92.904192 291.25007,93.69615 C 292.01039,94.488108 293.19827,95.723583 293.93482,96.792732 C 294.67132,97.861824 294.95643,98.764704 295.5583,99.651681 C 296.16022,100.53866 297.07889,101.40979 297.83123,102.1859 C 298.58357,102.96201 299.16965,103.64311 299.54978,104.33212 C 299.92991,105.02114 300.10416,105.71802 300.60308,106.77132 C 301.102,107.82463 301.92565,109.23435 302.74925,110.64402 C 301.46629,111.94282 300.18333,113.24162 299.17757,114.41371 C 298.17175,115.5858 297.44317,116.63118 296.59575,117.58947 C 295.74839,118.54769 294.78219,119.41888 293.45961,120.54344 C 292.1371,121.66799 290.45811,123.04602 288.38319,124.77249 C 286.30828,126.49897 283.83739,128.57388 281.57238,130.54585 C 279.30743,132.51777 277.2483,134.3868 274.63485,136.78644 C 272.0214,139.18603 268.85363,142.11628 266.16887,144.69804 C 263.48417,147.27985 261.28254,149.51317 259.68278,151.23959 C 258.08302,152.96606 257.08518,154.18569 256.7763,154.89842 C 256.46741,155.6112 256.84755,155.81709 258.03548,155.72999 C 259.22342,155.64289 261.21916,155.26276 263.84053,154.35988 C 266.46191,153.45706 269.70891,152.03155 273.03515,150.74067 C 276.36132,149.44979 279.76673,148.29354 282.9821,147.24024 C 286.19742,146.18694 289.22269,145.23658 292.24797,144.28621 C 289.90378,148.80039 287.5596,153.3145 285.12034,158.40677 C 282.68114,163.49909 280.14686,169.16945 277.93732,174.20631 C 275.72777,179.24312 273.84289,183.64637 272.43323,187.29733 C 271.02356,190.94824 270.08904,193.84675 268.39426,199.25582 C 266.69948,204.66489 264.24444,212.58441 262.47835,218.35777 C 260.71232,224.13113 259.63524,227.75827 258.43146,231.36169 C 257.22773,234.96506 255.89724,238.54472 254.89142,241.3799 C 253.88565,244.21508 253.20456,246.30584 252.77695,247.7472 C 252.34928,249.18856 252.17503,249.98052 252.15126,250.70915 C 252.12755,251.43772 252.25426,252.10297 252.57101,252.4277 C 252.88781,252.75237 253.39466,252.73652 253.83812,252.62566 C 254.28163,252.51479 254.66177,252.30885 255.0419,252.10297 C 254.97857,253.05333 254.91519,254.00363 255.14484,254.68473 C 255.37455,255.36582 255.89724,255.77765 256.38032,255.86474 C 256.86339,255.95189 257.30691,255.71426 258.01964,254.94607 C 258.73242,254.17788 259.71447,252.87908 260.83903,251.20807 C 261.96358,249.53706 263.23075,247.49378 264.63249,245.13375 C 266.03424,242.77372 267.57061,240.09694 268.5289,238.38632 C 269.48718,236.67569 269.86731,235.93127 270.26329,235.47983 C 270.65927,235.02845 271.0711,234.87005 271.55417,234.70372 C 272.03725,234.53739 272.59163,234.3632 273.28064,233.77713 C 273.96966,233.19111 274.79325,232.19321 275.80694,230.35587 C 276.82069,228.51853 278.02447,225.84176 278.87975,223.79848 C 279.73504,221.75526 280.24194,220.34559 280.63792,219.51402 C 281.0339,218.6825 281.31896,218.42902 281.66745,218.19145 C 282.0159,217.95387 282.42772,217.73214 283.51272,215.95813 C 284.59765,214.18417 286.35582,210.85794 287.74964,208.02276 C 289.14346,205.18758 290.17305,202.8434 290.79076,201.45744 C 291.40847,200.07154 291.61441,199.64387 291.83614,199.39837 C 292.05787,199.15288 292.29545,199.08949 292.541,198.98655 C 292.7865,198.88361 293.03992,198.74105 293.523,198.09957 C 294.00607,197.4581 294.71886,196.3177 295.77216,194.03684 C 296.82546,191.75599 298.21929,188.33479 299.09834,186.30736 C 299.97745,184.27998 300.34174,183.64637 300.81689,183.12368 C 301.2921,182.60099 301.87812,182.18922 302.44834,181.7457 C 303.01851,181.30219 303.5729,180.82703 304.19853,179.82127 C 304.82422,178.81545 305.5211,177.27907 306.28929,175.76646 C 307.05748,174.25379 307.89697,172.76495 308.41174,171.75121 C 308.92651,170.73752 309.1166,170.19898 309.39379,169.87431 C 309.67098,169.54958 310.03527,169.43872 310.59752,169.04274 C 311.15982,168.64676 311.92009,167.96567 313.15557,165.47101 C 314.39098,162.9764 316.10161,158.66817 317.09159,156.28437 C 318.0815,153.90058 318.35077,153.44121 318.81806,152.72848 C 319.28529,152.0157 319.95054,151.04955 320.59201,149.93286 C 321.23349,148.81623 321.8512,147.54912 322.61939,146.11563 C 323.38763,144.68219 324.3063,143.08249 325.20913,141.74407 C 326.11195,140.40565 326.99893,139.32858 328.41652,138.40199 C 329.83411,137.47546 331.78231,136.69934 332.97025,136.27167 C 334.15818,135.844 334.58586,135.76483 335.01353,135.6856 C 334.83928,136.39838 334.66503,137.11111 334.6017,137.61796 C 334.53832,138.12486 334.58586,138.42576 334.83135,138.79797 C 335.07685,139.17024 335.52037,139.6137 335.83712,140.08098 C 336.15393,140.54821 336.34402,141.03921 336.57367,141.39563 C 336.80333,141.75199 337.07259,141.97372 337.51611,142.11628 C 337.95957,142.25884 338.57728,142.32222 339.2346,142.3143 C 339.89193,142.30638 340.58887,142.22715 341.10363,142.19545 C 341.6184,142.16382 341.95105,142.17967 342.28365,142.19545 C 342.39451,142.8607 342.50538,143.52595 342.74301,144.02487 C 342.98059,144.52385 343.34487,144.85644 343.77254,145.0861 C 344.20016,145.31581 344.69121,145.44252 345.18221,145.56923 C 344.81793,145.20488 344.45364,144.8406 344.20808,144.3496 C 343.96258,143.8586 343.83587,143.24084 343.78047,142.74191 C 343.72501,142.24299 343.74085,141.86286 343.74878,141.64905 C 343.7567,141.43519 343.7567,141.38771 343.7567,141.34017 C 343.99428,141.49857 344.23185,141.65698 344.58821,141.61736 C 344.94464,141.57775 345.41979,141.34017 345.89494,141.10259 C 346.52855,141.53026 347.16211,141.95788 347.78774,142.24299 C 348.41337,142.52811 349.03114,142.67066 349.6884,143.09041 C 350.34573,143.5101 351.04267,144.20704 351.69999,144.65056 C 352.35732,145.09402 352.97502,145.28411 353.66404,145.65632 C 354.35306,146.02853 355.11332,146.58292 355.87359,147.1373 C 355.65186,147.53328 355.43013,147.92926 355.30342,148.41233 C 355.17671,148.89541 355.14501,149.46563 355.24003,150.00417 C 355.33505,150.54271 355.55684,151.04955 355.9132,151.39007 C 356.26957,151.73064 356.76056,151.90483 357.25162,152.07908 C 356.98235,151.76228 356.71308,151.44553 356.5626,151.08911 C 356.41212,150.73274 356.38043,150.33676 356.43589,149.98832 C 356.4913,149.63988 356.63385,149.33892 356.81603,149.06173 C 356.9982,148.78454 357.21993,148.53112 357.44166,148.2777 C 357.63175,148.51527 357.82179,148.75285 358.09898,148.91917 C 358.37617,149.0855 358.74046,149.18052 359.00973,149.47356 C 359.279,149.76659 359.45324,150.25759 359.80169,150.72482 C 360.15013,151.19211 360.67282,151.63557 361.23512,151.99985 C 361.79743,152.3642 362.39929,152.64931 363.00121,152.93437 C 362.79527,153.55213 362.58938,154.16984 362.4389,154.9618 C 362.28843,155.75376 362.19341,156.71991 362.31219,157.62273 C 362.43098,158.52561 362.76358,159.36505 363.21502,160.02238 C 363.66646,160.6797 364.23663,161.15485 364.71976,161.4875 C 365.20283,161.8201 365.59881,162.01019 366.07397,162.16067 C 366.54917,162.31115 367.1035,162.42202 367.65788,162.53288 C 366.92931,161.91517 366.20068,161.29741 365.69383,160.71139 C 365.18699,160.12532 364.90188,159.57099 364.7514,159.06409 C 364.60091,158.55725 364.58513,158.09794 364.56928,157.63858 C 364.90188,157.68612 365.23453,157.73365 365.52751,157.61487 C 365.82054,157.49602 366.07397,157.21096 366.24822,156.93377 C 366.42246,156.65658 366.51748,156.38732 366.6125,156.11805 C 367.04017,157.16343 367.46784,158.20881 367.96677,159.4522 C 368.46569,160.69555 369.03591,162.1369 369.34474,163.0635 C 369.65362,163.99009 369.7011,164.40191 369.85158,164.82953 C 370.00206,165.2572 370.25549,165.70072 370.3822,166.02539 C 370.50891,166.35012 370.50891,166.556 370.35843,166.81735 C 370.20801,167.07869 369.90704,167.3955 369.16262,167.86273 C 368.41815,168.33001 367.23021,168.94772 366.19275,169.4308 C 365.1553,169.91393 364.26832,170.26237 363.23086,170.42077 C 362.19341,170.57912 361.00547,170.54748 359.88092,170.38908 C 358.75631,170.23068 357.69508,169.94556 356.95066,169.80301 C 356.20624,169.66045 355.77857,169.66045 355.28757,169.87431 C 354.79652,170.08812 354.24219,170.51579 353.86206,170.80883 C 353.48187,171.10181 353.27598,171.26021 352.85624,171.25229 C 352.43649,171.24436 351.80293,171.07017 351.1773,171.16519 C 350.55167,171.26021 349.93396,171.6245 349.49837,172.09971 C 349.06277,172.57486 348.80935,173.16093 348.50052,173.54107 C 348.19164,173.9212 347.82735,174.09545 347.32051,174.55475 C 346.81361,175.01412 346.16421,175.75854 345.82369,176.38417 C 345.48317,177.0098 345.45148,177.51664 345.06342,177.99978 C 344.67537,178.48285 343.93095,178.94216 343.3528,179.48069 C 342.77465,180.01923 342.36288,180.637 342.12525,181.29426 C 341.88767,181.95159 341.82434,182.64853 341.91936,183.37716 C 342.01438,184.10573 342.2678,184.866 342.40244,185.53124 C 342.53707,186.19649 342.55292,186.76672 342.57668,187.8121 C 342.60045,188.85748 342.63209,190.37801 342.68755,191.24914 C 342.74301,192.12033 342.82218,192.34206 343.1073,192.22327 C 343.39241,192.10448 343.88341,191.64512 344.35856,191.01157 C 344.83377,190.37801 345.29308,189.57021 345.69698,189.09505 C 346.10088,188.61985 346.44932,188.47735 346.83738,188.27933 C 347.22543,188.08137 347.6531,187.82794 348.02531,187.78833 C 348.39753,187.74871 348.71433,187.92296 349.09446,188.00214 C 349.4746,188.08137 349.91811,188.06552 350.32202,187.90712 C 350.72592,187.74871 351.09021,187.44776 351.50995,187.22602 C 351.92964,187.00429 352.40485,186.86174 352.78499,186.70333 C 353.16512,186.54493 353.45023,186.37074 353.73535,185.98268 C 354.0204,185.59463 354.30552,184.99271 354.7728,184.38292 C 355.24003,183.77314 355.88943,183.15537 356.55468,182.70399 C 357.21993,182.25255 357.90102,181.96743 358.43956,181.61107 C 358.97804,181.25471 359.37401,180.82703 359.69082,180.30434 C 360.00763,179.78165 360.2452,179.16394 360.32438,178.26112 C 360.40361,177.3583 360.32438,176.17036 360.34814,175.06952 C 360.37191,173.96868 360.49863,172.95499 360.77582,172.39274 C 361.05301,171.83044 361.48062,171.71957 362.14587,171.6245 C 362.81112,171.52948 363.71394,171.45031 364.56136,171.24436 C 365.40872,171.03848 366.20068,170.70583 366.94515,170.28614 C 367.68957,169.86639 368.38646,169.35955 369.02799,168.9398 C 369.66947,168.52005 370.25549,168.18745 370.58022,168.15576 C 370.90489,168.12407 370.96827,168.39334 371.42758,170.75337 C 371.88694,173.11339 372.74223,177.56418 373.60549,180.62907 C 374.4687,183.69391 375.33983,185.37284 376.24265,187.18641 C 377.14553,189.00004 378.07999,190.94824 378.5552,192.2866 C 379.03035,193.62502 379.0462,194.35365 379.56096,195.19309 C 380.07573,196.03258 381.08942,196.98294 381.8339,197.63234 C 382.57832,198.28175 383.05347,198.63019 383.37027,198.60642 C 383.68702,198.58265 383.84543,198.18667 383.98006,197.78277 C 384.11469,197.37886 384.22556,196.9671 384.51067,196.91164 C 384.79579,196.85617 385.25509,197.15713 385.5719,197.08588 C 385.88871,197.01458 386.0629,196.57112 386.14213,195.97712 C 386.2213,195.38318 386.20545,194.6387 386.45888,194.04476 C 386.7123,193.45082 387.23499,193.00731 387.69435,192.94392 C 388.15366,192.8806 388.54964,193.19734 388.92977,193.45082 C 389.3099,193.70425 389.67425,193.89428 390.25234,194.3378 C 390.83049,194.78126 391.62245,195.4782 392.17683,195.6366 C 392.73116,195.79501 393.04796,195.41482 393.50727,195.26439 C 393.96663,195.11391 394.56849,195.19309 395.06741,194.97928 C 395.56639,194.76541 395.96237,194.25857 395.92276,193.45082 C 395.88314,192.64302 395.40799,191.53426 394.76651,190.06913 C 394.12503,188.60406 393.31723,186.78256 392.747,185.53124 C 392.17683,184.27998 391.84418,183.59889 391.81249,182.95741 C 391.78085,182.31593 392.05012,181.71401 392.68367,181.08838 C 393.31723,180.46275 394.31507,179.81335 395.55847,179.13225 C 396.80181,178.45116 398.29071,177.73843 399.47864,177.07318 C 400.66658,176.40794 401.55356,175.79023 402.10002,175.3071 C 402.64648,174.82402 402.85236,174.47558 403.13747,173.90535 C 403.42259,173.33512 403.78688,172.54317 403.80272,171.63242 C 403.81857,170.72168 403.48592,169.69214 403.38297,168.90811 C 403.28003,168.12407 403.40674,167.58553 403.2008,166.9599 C 402.99492,166.33427 402.45638,165.62149 402.07625,165.20179 C 401.69612,164.78205 401.47433,164.65534 401.20512,164.39399 C 400.93585,164.13265 400.61904,163.73667 400.27853,163.43571 C 399.93795,163.13475 399.57366,162.92886 399.17768,162.818 C 398.78171,162.70713 398.35404,162.69129 397.8155,162.66752 C 397.27702,162.64375 396.62762,162.61206 395.40007,162.40617 C 394.17251,162.20023 392.36687,161.8201 390.6404,160.98858 C 388.91398,160.15701 387.26668,158.87405 386.29261,158.16919 C 385.31848,157.46439 385.01752,157.33768 384.66908,157.46439 C 384.32063,157.5911 383.92466,157.97123 383.63162,158.34344 C 383.33858,158.71565 383.14854,159.07994 383.28318,159.46007 C 383.41781,159.84026 383.87712,160.23624 384.59783,160.8381 C 385.31848,161.43997 386.30053,162.24777 387.35378,162.77838 C 388.40708,163.309 389.53169,163.56242 390.35528,163.95047 C 391.17893,164.33853 391.70162,164.86122 392.38272,165.18595 C 393.06381,165.51062 393.90325,165.63733 394.60019,165.97791 C 395.29712,166.31842 395.85145,166.87281 396.48506,167.56969 C 397.11862,168.26663 397.83134,169.10612 397.96598,169.84262 C 398.10061,170.57912 397.65715,171.21273 396.77804,171.90169 C 395.89899,172.5907 394.58434,173.33512 393.48356,173.95289 C 392.38272,174.5706 391.49574,175.0616 390.60876,175.29917 C 389.72173,175.53681 388.83475,175.52096 388.12995,175.08537 C 387.42508,174.64977 386.90239,173.79449 386.47472,172.47192 C 386.04705,171.14935 385.71446,169.35955 385.15215,167.56969 C 384.5899,165.77989 383.79795,163.99009 383.20395,162.35863 C 382.61001,160.72724 382.21403,159.25419 381.96061,158.16919 C 381.70718,157.08425 381.59626,156.38732 381.60419,155.83293 C 381.61211,155.27855 381.73882,154.86678 381.82597,154.17777 C 381.91307,153.48875 381.96061,152.52254 381.84974,151.44553 C 381.73882,150.36846 381.46955,149.18052 380.96271,147.96089 C 380.45586,146.74132 379.71144,145.49 378.78485,144.44462 C 377.85826,143.39924 376.74955,142.5598 375.22896,141.65698 C 373.70843,140.7541 371.77607,139.78795 370.25549,138.98014 C 368.73495,138.17234 367.62619,137.52294 367.05602,136.93692 C 366.48579,136.35085 366.4541,135.82816 366.54125,134.84616 C 366.62835,133.86411 366.83423,132.42275 367.09558,131.34568 C 367.35692,130.26866 367.67373,129.55588 367.88754,129.1282 C 368.1014,128.70059 368.21226,128.55803 368.62409,128.37586 C 369.03591,128.19375 369.74864,127.97196 371.66515,127.20377 C 373.58172,126.43558 376.70202,125.12093 380.21037,123.38654 C 383.71872,121.6522 387.61512,119.49805 392.01843,116.68664 C 396.42168,113.87518 401.33183,110.40644 405.23616,107.20692 C 409.14049,104.00745 412.03905,101.07719 414.13773,98.938896 C 416.23642,96.800655 417.53522,95.454315 418.636,94.638588 C 419.73684,93.822861 420.63967,93.537804 421.6692,93.25269 C 422.69873,92.967576 423.85498,92.682462 424.81326,92.484501 C 425.77155,92.286483 426.53181,92.175618 427.07827,91.969734 C 427.62468,91.763793 427.95733,91.462833 428.21075,91.098546 C 428.46417,90.734259 428.63842,90.306588 428.81261,89.878974 C 429.79467,89.942301 430.77666,90.005685 432.22594,89.807667 C 433.67523,89.609706 435.59179,89.150343 437.1915,88.61973 C 438.79126,88.089117 440.07422,87.487254 441.32554,86.82993 C 442.5768,86.172606 443.79643,85.459821 445.016,84.747093 C 445.22194,85.887492 445.42783,87.027891 445.39619,88.112886 C 445.3645,89.197881 445.09523,90.227415 444.90514,90.987681 C 444.7151,91.747947 444.60423,92.238945 444.49331,92.73"
   id="path2456"
   style="fill:none;stroke:#1f1a17;stroke-width:0.2;stroke-linecap:round;stroke-linejoin:round;stroke-miterlimit:4;stroke-dasharray:none" /><path
   d="M 199.38499,92.771382 C 200.22449,92.058597 201.06398,91.345869 201.88758,90.316335 C 202.71123,89.286744 203.51903,87.940461 204.17635,86.483256 C 204.83368,85.026051 205.34052,83.457981 205.53056,81.866142 C 205.72065,80.274303 205.59394,78.658752 205.22966,77.035221 C 204.86531,75.41169 204.26345,73.780293 203.30517,72.172608 C 202.34694,70.56498 201.03229,68.981064 200.12154,68.078241 C 199.2108,67.175361 198.70395,66.953631 198.38715,66.787305 C 198.07034,66.621036 197.94363,66.510171 197.89615,66.351768 C 197.84861,66.193365 197.8803,65.987481 197.95155,65.623137 C 198.02286,65.25885 198.13373,64.73616 198.05455,64.14222 C 197.97532,63.548223 197.70606,62.882976 197.06458,62.091018 C 196.4231,61.29906 195.40941,60.380391 193.61169,59.596356 C 191.81391,58.812321 189.23215,58.16292 186.13563,57.972882 C 183.03904,57.782787 179.42775,58.052055 175.85602,58.68561 C 172.28434,59.319222 168.75222,60.317064 165.57647,61.275348 C 162.40071,62.233575 159.58138,63.152244 157.24512,63.849183 C 154.9088,64.546122 153.05568,65.021274 151.40838,65.361792 C 149.76113,65.702367 148.31977,65.908251 145.89636,66.248826 C 143.47301,66.589344 140.0676,67.064496 136.33752,67.547628 C 132.60738,68.030703 128.55257,68.521701 125.1234,69.123621 C 121.69422,69.725484 118.89073,70.438269 115.2319,71.562822 C 111.57307,72.687375 107.0589,74.22381 102.1488,76.512531 C 97.23871,78.801309 91.93258,81.842373 87.656041,84.614226 C 83.379445,87.386079 80.13244,89.888664 77.558605,91.99527 C 74.98477,94.101876 73.084048,95.812446 71.040826,97.697322 C 68.997547,99.582198 66.811768,101.64127 64.625989,103.70033"
   id="path2458"
   style="fill:none;stroke:#1f1a17;stroke-width:0.114;stroke-linecap:round;stroke-linejoin:round" /><path
   d="M 64.62616,103.69999 C 63.454069,102.16361 62.281978,100.62724 60.999022,98.805744 C 59.716066,96.984252 58.322188,94.877646 57.292654,93.333288 C 56.26312,91.788987 55.597873,90.806991 54.940549,89.935803 C 54.283225,89.064672 53.633824,88.304406 52.82602,87.813408 C 52.018216,87.322353 51.052066,87.100623 50.228416,86.918451 C 49.404766,86.736336 48.72373,86.593779 48.185194,86.657106 C 47.646658,86.72049 47.250679,86.989758 46.973488,87.425352 C 46.696297,87.860889 46.537894,88.462809 46.48249,89.001345 C 46.427029,89.539824 46.474567,90.015033 46.411183,90.30807 C 46.347856,90.60105 46.173607,90.711915 45.983569,90.822837 C 45.793474,90.933702 45.58759,91.044567 45.373726,91.282143 C 45.159919,91.519719 44.938189,91.884063 44.993593,92.240427 C 45.049054,92.596791 45.381649,92.945232 46.141915,93.73719 C 46.902238,94.529148 48.090118,95.764623 48.826672,96.833772 C 49.563169,97.902864 49.848283,98.805744 50.450146,99.692721 C 51.052066,100.5797 51.970735,101.45083 52.723078,102.22694 C 53.475421,103.00305 54.061495,103.68415 54.441628,104.37316 C 54.821761,105.06218 54.99601,105.75906 55.494931,106.81236 C 55.993852,107.86567 56.817502,109.27539 57.641095,110.68506 C 56.358139,111.98386 55.075183,113.28266 54.069418,114.45475 C 53.063596,115.62684 52.335022,116.67222 51.487603,117.63051 C 50.640241,118.58873 49.674034,119.45992 48.351463,120.58447 C 47.028949,121.70903 45.349957,123.08706 43.275043,124.81353 C 41.200129,126.54001 38.729236,128.61492 36.464227,130.58689 C 34.199275,132.55881 32.14015,134.42784 29.5267,136.82748 C 26.91325,139.22707 23.745475,142.15732 21.060718,144.73908 C 18.376018,147.32089 16.174393,149.55421 14.574631,151.28063 C 12.974869,153.0071 11.977027,154.22673 11.668144,154.93946 C 11.359261,155.65224 11.739394,155.85813 12.927331,155.77103 C 14.115268,155.68393 16.111009,155.3038 18.732382,154.40092 C 21.353755,153.4981 24.60076,152.07259 27.926995,150.78171 C 31.253173,149.49083 34.658581,148.33458 37.873951,147.28128 C 41.089264,146.22798 44.114539,145.27762 47.139814,144.32726 C 44.795632,148.84143 42.45145,153.35554 40.012192,158.44781 C 37.572991,163.54013 35.038714,169.21049 32.829166,174.24735 C 30.619618,179.28416 28.734742,183.68741 27.325075,187.33837 C 25.915408,190.98928 24.980893,193.88779 23.286112,199.29686 C 21.591331,204.70593 19.136284,212.62545 17.370196,218.39881 C 15.604165,224.17217 14.527093,227.79931 13.32331,231.40273 C 12.119584,235.0061 10.78909,238.58576 9.783268,241.42094 C 8.777503,244.25612 8.09641,246.34688 7.668796,247.78824 C 7.241125,249.2296 7.066876,250.02156 7.043107,250.75019 C 7.019395,251.47876 7.146106,252.14401 7.462855,252.46874 C 7.779661,252.79341 8.286505,252.77756 8.729965,252.6667 C 9.173482,252.55583 9.553615,252.34989 9.933748,252.14401 C 9.870421,253.09437 9.807037,254.04467 10.03669,254.72577 C 10.2664,255.40686 10.78909,255.81868 11.272165,255.90578 C 11.75524,255.99293 12.198757,255.7553 12.911485,254.98711 C 13.62427,254.21892 14.606323,252.92012 15.730876,251.24911 C 16.855429,249.5781 18.122596,247.53482 19.52434,245.17479 C 20.926084,242.81476 22.462462,240.13798 23.420746,238.42736 C 24.37903,236.71673 24.759163,235.97231 25.155142,235.52087 C 25.551121,235.06949 25.962946,234.91108 26.446021,234.74476 C 26.929096,234.57843 27.483478,234.40424 28.172494,233.81817 C 28.86151,233.23215 29.685103,232.23425 30.698791,230.39691 C 31.712536,228.55957 32.916319,225.8828 33.771604,223.83952 C 34.626889,221.7963 35.13379,220.38663 35.529769,219.55506 C 35.925748,218.72354 36.210805,218.47006 36.559303,218.23249 C 36.907744,217.99491 37.319569,217.77318 38.404564,215.99917 C 39.489502,214.22521 41.247667,210.89898 42.641488,208.0638 C 44.035309,205.22862 45.0649,202.88444 45.682609,201.49848 C 46.300318,200.11258 46.506259,199.68491 46.727989,199.43941 C 46.949719,199.19392 47.187295,199.13053 47.432851,199.02759 C 47.67835,198.92465 47.931772,198.78209 48.414847,198.14061 C 48.897922,197.49913 49.610707,196.35874 50.66401,194.07788 C 51.717313,191.79703 53.111134,188.37583 53.990188,186.3484 C 54.869299,184.32102 55.233586,183.68741 55.708738,183.16472 C 56.183947,182.64203 56.769964,182.23026 57.340192,181.78674 C 57.910363,181.34323 58.464745,180.86807 59.090377,179.86231 C 59.716066,178.85649 60.412948,177.32011 61.181137,175.8075 C 61.949326,174.29483 62.788822,172.80599 63.303589,171.79225 C 63.818356,170.77856 64.008451,170.24002 64.285642,169.91535 C 64.562833,169.59062 64.92712,169.47976 65.489368,169.08378 C 66.051673,168.6878 66.811939,168.00671 68.047414,165.51205 C 69.282832,163.01744 70.993459,158.70921 71.983435,156.32541 C 72.973354,153.94162 73.242622,153.48225 73.709908,152.76952 C 74.177137,152.05674 74.842384,151.09059 75.483862,149.9739 C 76.12534,148.85727 76.743049,147.59016 77.511238,146.15667 C 78.279484,144.72323 79.198153,143.12353 80.100976,141.78511 C 81.003799,140.44669 81.890776,139.36962 83.308366,138.44303 C 84.725956,137.5165 86.674159,136.74038 87.862096,136.31271 C 89.050033,135.88504 89.477704,135.80587 89.905375,135.72664 C 89.731126,136.43942 89.556877,137.15215 89.49355,137.659 C 89.430166,138.1659 89.477704,138.4668 89.723203,138.83901 C 89.968702,139.21128 90.412219,139.65474 90.728968,140.12202 C 91.045774,140.58925 91.235869,141.08025 91.465522,141.43667 C 91.695175,141.79304 91.964443,142.01476 92.40796,142.15732 C 92.85142,142.29988 93.469129,142.36326 94.126453,142.35534 C 94.783777,142.34742 95.480716,142.26819 95.995483,142.23649 C 96.51025,142.20486 96.842902,142.22071 97.175497,142.23649 C 97.286362,142.90174 97.397227,143.56699 97.63486,144.06591 C 97.872436,144.56489 98.236723,144.89748 98.664394,145.12714 C 99.092008,145.35685 99.583063,145.48356 100.07406,145.61027 C 99.709774,145.24592 99.345487,144.88164 99.099931,144.39064 C 98.854432,143.89964 98.727721,143.28187 98.672317,142.78295 C 98.616856,142.28403 98.632702,141.9039 98.640625,141.69009 C 98.648548,141.47623 98.648548,141.42875 98.648548,141.38121 C 98.886124,141.53961 99.1237,141.69802 99.480064,141.6584 C 99.836485,141.61879 100.31164,141.38121 100.78679,141.14363 C 101.4204,141.5713 102.05396,141.99892 102.67959,142.28403 C 103.30522,142.56915 103.92299,142.7117 104.58025,143.13145 C 105.23758,143.55114 105.93452,144.24808 106.59184,144.6916 C 107.24916,145.13506 107.86687,145.32515 108.55589,145.69736 C 109.24491,146.06957 110.00517,146.62396 110.76544,147.17834 C 110.54371,147.57432 110.32198,147.9703 110.19527,148.45337 C 110.06856,148.93645 110.03686,149.50667 110.13188,150.04521 C 110.2269,150.58375 110.44869,151.09059 110.80505,151.43111 C 111.16142,151.77168 111.65241,151.94587 112.14347,152.12012 C 111.8742,151.80332 111.60493,151.48657 111.45445,151.13015 C 111.30397,150.77378 111.27228,150.3778 111.32774,150.02936 C 111.38315,149.68092 111.5257,149.37996 111.70788,149.10277 C 111.89005,148.82558 112.11178,148.57216 112.33351,148.31874 C 112.5236,148.55631 112.71364,148.79389 112.99083,148.96021 C 113.26802,149.12654 113.63231,149.22156 113.90158,149.5146 C 114.17085,149.80763 114.34509,150.29863 114.69354,150.76586 C 115.04198,151.23315 115.56467,151.67661 116.12697,152.04089 C 116.68928,152.40524 117.29114,152.69035 117.89306,152.97541 C 117.68712,153.59318 117.48123,154.21088 117.33075,155.00284 C 117.18027,155.7948 117.08526,156.76095 117.20404,157.66377 C 117.32283,158.56665 117.65543,159.40609 118.10687,160.06342 C 118.55831,160.72074 119.12848,161.19589 119.61161,161.52854 C 120.09468,161.86114 120.49066,162.05123 120.96582,162.20171 C 121.44102,162.35219 121.99535,162.46306 122.54973,162.57392 C 121.82116,161.95621 121.09253,161.33845 120.58568,160.75243 C 120.07884,160.16636 119.79372,159.61203 119.64324,159.10513 C 119.49276,158.59829 119.47698,158.13898 119.46113,157.67962 C 119.79372,157.72716 120.12638,157.77469 120.41936,157.65591 C 120.71239,157.53706 120.96582,157.252 121.14006,156.97481 C 121.31431,156.69762 121.40933,156.42835 121.50435,156.15909 C 121.93202,157.20447 122.35969,158.24985 122.85861,159.49325 C 123.35754,160.73659 123.92776,162.17794 124.23659,163.10454 C 124.54547,164.03113 124.59295,164.44295 124.74343,164.87057 C 124.89391,165.29824 125.14734,165.74176 125.27405,166.06643 C 125.40076,166.39116 125.40076,166.59704 125.25028,166.85839 C 125.09985,167.11973 124.79889,167.43654 124.05447,167.90377 C 123.31,168.37105 122.12206,168.98876 121.0846,169.47184 C 120.04715,169.95497 119.16017,170.30341 118.12271,170.46181 C 117.08526,170.62016 115.89732,170.58852 114.77277,170.43012 C 113.64816,170.27172 112.58693,169.9866 111.84251,169.84405 C 111.09809,169.70149 110.67042,169.70149 110.17942,169.91535 C 109.68837,170.12916 109.13404,170.55683 108.75391,170.84987 C 108.37372,171.14285 108.16783,171.30125 107.74809,171.29333 C 107.32834,171.2854 106.69478,171.11121 106.06915,171.20623 C 105.44352,171.30125 104.82581,171.66554 104.39022,172.14075 C 103.95462,172.6159 103.7012,173.20197 103.39237,173.58211 C 103.08349,173.96224 102.7192,174.13649 102.21236,174.59579 C 101.70546,175.05516 101.05606,175.79958 100.71554,176.42521 C 100.37502,177.05084 100.34333,177.55768 99.955273,178.04082 C 99.567217,178.52389 98.822797,178.9832 98.244646,179.52173 C 97.666495,180.06027 97.254727,180.67804 97.017094,181.3353 C 96.779518,181.99263 96.716191,182.68957 96.81121,183.4182 C 96.906229,184.14677 97.159651,184.90704 97.294285,185.57228 C 97.428919,186.23753 97.444765,186.80776 97.468534,187.85314 C 97.492303,188.89852 97.523938,190.41905 97.579399,191.29018 C 97.63486,192.16137 97.714033,192.3831 97.999147,192.26431 C 98.284261,192.14552 98.775259,191.68616 99.250411,191.05261 C 99.72562,190.41905 100.18493,189.61125 100.58883,189.13609 C 100.99273,188.66089 101.34117,188.51839 101.72923,188.32037 C 102.11728,188.12241 102.54495,187.86898 102.91716,187.82937 C 103.28937,187.78975 103.60618,187.964 103.98631,188.04318 C 104.36645,188.12241 104.80996,188.10656 105.21387,187.94816 C 105.61777,187.78975 105.98205,187.4888 106.4018,187.26707 C 106.82149,187.04533 107.2967,186.90278 107.67684,186.74437 C 108.05697,186.58597 108.34208,186.41178 108.6272,186.02372 C 108.91225,185.63567 109.19737,185.03375 109.66465,184.42396 C 110.13188,183.81418 110.78128,183.19641 111.44653,182.74503 C 112.11178,182.29359 112.79287,182.00847 113.33141,181.65211 C 113.86989,181.29574 114.26586,180.86807 114.58267,180.34538 C 114.89948,179.82269 115.13705,179.20498 115.21623,178.30216 C 115.29546,177.39934 115.21623,176.2114 115.23999,175.11056 C 115.26376,174.00972 115.39047,172.99603 115.66767,172.43378 C 115.94486,171.87148 116.37247,171.76061 117.03772,171.66554 C 117.70296,171.57052 118.60579,171.49135 119.45321,171.2854 C 120.30057,171.07952 121.09253,170.74687 121.837,170.32718 C 122.58142,169.90743 123.27831,169.40059 123.91984,168.98084 C 124.56132,168.56109 125.14734,168.22849 125.47206,168.1968 C 125.79674,168.16511 125.86012,168.43438 126.31943,170.79441 C 126.77879,173.15443 127.63407,177.60522 128.49734,180.67011 C 129.36055,183.73495 130.23168,185.41388 131.1345,187.22745 C 132.03738,189.04108 132.97184,190.98928 133.44705,192.32764 C 133.9222,193.66606 133.93805,194.39469 134.45281,195.23413 C 134.96758,196.07362 135.98127,197.02398 136.72575,197.67338 C 137.47017,198.32279 137.94532,198.67123 138.26212,198.64746 C 138.57887,198.62369 138.73728,198.22771 138.87191,197.82381 C 139.00654,197.4199 139.11741,197.00814 139.40252,196.95268 C 139.68764,196.89721 140.14694,197.19817 140.46375,197.12692 C 140.78055,197.05562 140.95475,196.61216 141.03398,196.01816 C 141.11315,195.42422 141.0973,194.67974 141.35073,194.0858 C 141.60415,193.49186 142.12684,193.04835 142.5862,192.98496 C 143.04551,192.92164 143.44149,193.23838 143.82162,193.49186 C 144.20175,193.74529 144.5661,193.93532 145.14419,194.37884 C 145.72234,194.8223 146.5143,195.51924 147.06868,195.67764 C 147.62301,195.83605 147.93981,195.45586 148.39912,195.30543 C 148.85848,195.15495 149.46034,195.23413 149.95926,195.02032 C 150.45824,194.80645 150.85422,194.29961 150.81461,193.49186 C 150.77499,192.68406 150.29984,191.5753 149.65836,190.11017 C 149.01688,188.6451 148.20908,186.8236 147.63885,185.57228 C 147.06868,184.32102 146.73603,183.63993 146.70434,182.99845 C 146.6727,182.35697 146.94197,181.75505 147.57552,181.12942 C 148.20908,180.50379 149.20692,179.85439 150.45032,179.17329 C 151.69366,178.4922 153.18256,177.77947 154.37049,177.11422 C 155.55843,176.44898 156.44541,175.83127 156.99187,175.34814 C 157.53833,174.86506 157.74421,174.51662 158.02932,173.94639 C 158.31444,173.37616 158.67873,172.58421 158.69457,171.67346 C 158.71042,170.76272 158.37777,169.73318 158.27482,168.94915 C 158.17188,168.16511 158.29859,167.62658 158.09265,167.00094 C 157.88677,166.37531 157.34823,165.66253 156.9681,165.24283 C 156.58797,164.82309 156.36618,164.69638 156.09697,164.43503 C 155.8277,164.17369 155.51089,163.77771 155.17038,163.47675 C 154.8298,163.17579 154.46551,162.9699 154.06953,162.85904 C 153.67356,162.74817 153.24588,162.73233 152.70735,162.70856 C 152.16887,162.68479 151.51947,162.6531 150.29192,162.44721 C 149.06436,162.24127 147.25872,161.86114 145.53225,161.02962 C 143.80583,160.19805 142.15853,158.91509 141.18446,158.21023 C 140.21033,157.50543 139.90937,157.37872 139.56093,157.50543 C 139.21248,157.63214 138.81651,158.01227 138.52347,158.38448 C 138.23043,158.75669 138.04039,159.12098 138.17503,159.50111 C 138.30966,159.8813 138.76897,160.27728 139.48968,160.87914 C 140.21033,161.48101 141.19238,162.28881 142.24563,162.81942 C 143.29893,163.35004 144.42354,163.60346 145.24713,163.99151 C 146.07078,164.37957 146.59347,164.90226 147.27456,165.22699 C 147.95566,165.55166 148.7951,165.67837 149.49204,166.01895 C 150.18897,166.35947 150.7433,166.91385 151.37691,167.61073 C 152.01047,168.30767 152.72319,169.14716 152.85783,169.88366 C 152.99246,170.62016 152.549,171.25377 151.66989,171.94273 C 150.79084,172.63174 149.47619,173.37616 148.37541,173.99393 C 147.27456,174.61164 146.38759,175.10264 145.50061,175.34021 C 144.61358,175.57785 143.7266,175.562 143.02179,175.12641 C 142.31693,174.69081 141.79424,173.83553 141.36657,172.51296 C 140.9389,171.19039 140.60631,169.40059 140.044,167.61073 C 139.48175,165.82093 138.68979,164.03113 138.0958,162.39967 C 137.50186,160.76828 137.10588,159.29523 136.85246,158.21023 C 136.59903,157.12529 136.48811,156.42835 136.49604,155.87397 C 136.50396,155.31959 136.63067,154.90782 136.71782,154.21881 C 136.80492,153.52979 136.85246,152.56358 136.74159,151.48657 C 136.63067,150.4095 136.3614,149.22156 135.85456,148.00193 C 135.34771,146.78236 134.60329,145.53104 133.6767,144.48566 C 132.75011,143.44028 131.6414,142.60084 130.12081,141.69802 C 128.60028,140.79514 126.66792,139.82899 125.14734,139.02118 C 123.6268,138.21338 122.51804,137.56398 121.94787,136.97796 C 121.37764,136.39189 121.34595,135.8692 121.4331,134.8872 C 121.5202,133.90515 121.72608,132.46379 121.98743,131.38672 C 122.24877,130.3097 122.56558,129.59692 122.77938,129.16924 C 122.99325,128.74163 123.10411,128.59907 123.51594,128.4169 C 123.92776,128.23479 124.64049,128.013 126.557,127.24481 C 128.47357,126.47662 131.59386,125.16197 135.10221,123.42758 C 138.61056,121.69324 142.50697,119.5391 146.91028,116.72768 C 151.31353,113.91622 156.22368,110.44748 160.12801,107.24796 C 164.03234,104.04849 166.9309,101.11823 169.02958,98.979936 C 171.12827,96.841695 172.42707,95.495355 173.52785,94.679628 C 174.62869,93.863901 175.53152,93.578844 176.56105,93.29373 C 177.59058,93.008616 178.74683,92.723502 179.70511,92.525541 C 180.6634,92.327523 181.42366,92.216658 181.97012,92.010774 C 182.51652,91.804833 182.84918,91.503873 183.1026,91.139586 C 183.35602,90.775299 183.53027,90.347628 183.70446,89.920014 C 184.68651,89.983341 185.66851,90.046725 187.11779,89.848707 C 188.56707,89.650746 190.48364,89.191383 192.08335,88.66077 C 193.68311,88.130157 194.96607,87.528294 196.21739,86.87097 C 197.46865,86.213646 198.68828,85.500861 199.90785,84.788133 C 200.11379,85.928532 200.31968,87.068931 200.28804,88.153926 C 200.25635,89.238921 199.98708,90.268455 199.79699,91.028721 C 199.60695,91.788987 199.49608,92.279985 199.38516,92.77104"
   id="path2460"
   style="fill:none;stroke:#1f1a17;stroke-width:0.114;stroke-linecap:round;stroke-linejoin:round" /><path
   d="M 64.62616,103.69999 C 63.454069,102.16361 62.281978,100.62724 60.999022,98.805744 C 59.716066,96.984252 58.322188,94.877646 57.292654,93.333288 C 56.26312,91.788987 55.597873,90.806991 54.940549,89.935803 C 54.283225,89.064672 53.633824,88.304406 52.82602,87.813408 C 52.018216,87.322353 51.052066,87.100623 50.228416,86.918451 C 49.404766,86.736336 48.72373,86.593779 48.185194,86.657106 C 47.646658,86.72049 47.250679,86.989758 46.973488,87.425352 C 46.696297,87.860889 46.537894,88.462809 46.48249,89.001345 C 46.427029,89.539824 46.474567,90.015033 46.411183,90.30807 C 46.347856,90.60105 46.173607,90.711915 45.983569,90.822837 C 45.793474,90.933702 45.58759,91.044567 45.373726,91.282143 C 45.159919,91.519719 44.938189,91.884063 44.993593,92.240427 C 45.049054,92.596791 45.381649,92.945232 46.141915,93.73719 C 46.902238,94.529148 48.090118,95.764623 48.826672,96.833772 C 49.563169,97.902864 49.848283,98.805744 50.450146,99.692721 C 51.052066,100.5797 51.970735,101.45083 52.723078,102.22694 C 53.475421,103.00305 54.061495,103.68415 54.441628,104.37316 C 54.821761,105.06218 54.99601,105.75906 55.494931,106.81236 C 55.993852,107.86567 56.817502,109.27539 57.641095,110.68506 C 56.358139,111.98386 55.075183,113.28266 54.069418,114.45475 C 53.063596,115.62684 52.335022,116.67222 51.487603,117.63051 C 50.640241,118.58873 49.674034,119.45992 48.351463,120.58447 C 47.028949,121.70903 45.349957,123.08706 43.275043,124.81353 C 41.200129,126.54001 38.729236,128.61492 36.464227,130.58689 C 34.199275,132.55881 32.14015,134.42784 29.5267,136.82748 C 26.91325,139.22707 23.745475,142.15732 21.060718,144.73908 C 18.376018,147.32089 16.174393,149.55421 14.574631,151.28063 C 12.974869,153.0071 11.977027,154.22673 11.668144,154.93946 C 11.359261,155.65224 11.739394,155.85813 12.927331,155.77103 C 14.115268,155.68393 16.111009,155.3038 18.732382,154.40092 C 21.353755,153.4981 24.60076,152.07259 27.926995,150.78171 C 31.253173,149.49083 34.658581,148.33458 37.873951,147.28128 C 41.089264,146.22798 44.114539,145.27762 47.139814,144.32726 C 44.795632,148.84143 42.45145,153.35554 40.012192,158.44781 C 37.572991,163.54013 35.038714,169.21049 32.829166,174.24735 C 30.619618,179.28416 28.734742,183.68741 27.325075,187.33837 C 25.915408,190.98928 24.980893,193.88779 23.286112,199.29686 C 21.591331,204.70593 19.136284,212.62545 17.370196,218.39881 C 15.604165,224.17217 14.527093,227.79931 13.32331,231.40273 C 12.119584,235.0061 10.78909,238.58576 9.783268,241.42094 C 8.777503,244.25612 8.09641,246.34688 7.668796,247.78824 C 7.241125,249.2296 7.066876,250.02156 7.043107,250.75019 C 7.019395,251.47876 7.146106,252.14401 7.462855,252.46874 C 7.779661,252.79341 8.286505,252.77756 8.729965,252.6667 C 9.173482,252.55583 9.553615,252.34989 9.933748,252.14401 C 9.870421,253.09437 9.807037,254.04467 10.03669,254.72577 C 10.2664,255.40686 10.78909,255.81868 11.272165,255.90578 C 11.75524,255.99293 12.198757,255.7553 12.911485,254.98711 C 13.62427,254.21892 14.606323,252.92012 15.730876,251.24911 C 16.855429,249.5781 18.122596,247.53482 19.52434,245.17479 C 20.926084,242.81476 22.462462,240.13798 23.420746,238.42736 C 24.37903,236.71673 24.759163,235.97231 25.155142,235.52087 C 25.551121,235.06949 25.962946,234.91108 26.446021,234.74476 C 26.929096,234.57843 27.483478,234.40424 28.172494,233.81817 C 28.86151,233.23215 29.685103,232.23425 30.698791,230.39691 C 31.712536,228.55957 32.916319,225.8828 33.771604,223.83952 C 34.626889,221.7963 35.13379,220.38663 35.529769,219.55506 C 35.925748,218.72354 36.210805,218.47006 36.559303,218.23249 C 36.907744,217.99491 37.319569,217.77318 38.404564,215.99917 C 39.489502,214.22521 41.247667,210.89898 42.641488,208.0638 C 44.035309,205.22862 45.0649,202.88444 45.682609,201.49848 C 46.300318,200.11258 46.506259,199.68491 46.727989,199.43941 C 46.949719,199.19392 47.187295,199.13053 47.432851,199.02759 C 47.67835,198.92465 47.931772,198.78209 48.414847,198.14061 C 48.897922,197.49913 49.610707,196.35874 50.66401,194.07788 C 51.717313,191.79703 53.111134,188.37583 53.990188,186.3484 C 54.869299,184.32102 55.233586,183.68741 55.708738,183.16472 C 56.183947,182.64203 56.769964,182.23026 57.340192,181.78674 C 57.910363,181.34323 58.464745,180.86807 59.090377,179.86231 C 59.716066,178.85649 60.412948,177.32011 61.181137,175.8075 C 61.949326,174.29483 62.788822,172.80599 63.303589,171.79225 C 63.818356,170.77856 64.008451,170.24002 64.285642,169.91535 C 64.562833,169.59062 64.92712,169.47976 65.489368,169.08378 C 66.051673,168.6878 66.811939,168.00671 68.047414,165.51205 C 69.282832,163.01744 70.993459,158.70921 71.983435,156.32541 C 72.973354,153.94162 73.242622,153.48225 73.709908,152.76952 C 74.177137,152.05674 74.842384,151.09059 75.483862,149.9739 C 76.12534,148.85727 76.743049,147.59016 77.511238,146.15667 C 78.279484,144.72323 79.198153,143.12353 80.100976,141.78511 C 81.003799,140.44669 81.890776,139.36962 83.308366,138.44303 C 84.725956,137.5165 86.674159,136.74038 87.862096,136.31271 C 89.050033,135.88504 89.477704,135.80587 89.905375,135.72664 C 89.731126,136.43942 89.556877,137.15215 89.49355,137.659 C 89.430166,138.1659 89.477704,138.4668 89.723203,138.83901 C 89.968702,139.21128 90.412219,139.65474 90.728968,140.12202 C 91.045774,140.58925 91.235869,141.08025 91.465522,141.43667 C 91.695175,141.79304 91.964443,142.01476 92.40796,142.15732 C 92.85142,142.29988 93.469129,142.36326 94.126453,142.35534 C 94.783777,142.34742 95.480716,142.26819 95.995483,142.23649 C 96.51025,142.20486 96.842902,142.22071 97.175497,142.23649 C 97.286362,142.90174 97.397227,143.56699 97.63486,144.06591 C 97.872436,144.56489 98.236723,144.89748 98.664394,145.12714 C 99.092008,145.35685 99.583063,145.48356 100.07406,145.61027 C 99.709774,145.24592 99.345487,144.88164 99.099931,144.39064 C 98.854432,143.89964 98.727721,143.28187 98.672317,142.78295 C 98.616856,142.28403 98.632702,141.9039 98.640625,141.69009 C 98.648548,141.47623 98.648548,141.42875 98.648548,141.38121 C 98.886124,141.53961 99.1237,141.69802 99.480064,141.6584 C 99.836485,141.61879 100.31164,141.38121 100.78679,141.14363 C 101.4204,141.5713 102.05396,141.99892 102.67959,142.28403 C 103.30522,142.56915 103.92299,142.7117 104.58025,143.13145 C 105.23758,143.55114 105.93452,144.24808 106.59184,144.6916 C 107.24916,145.13506 107.86687,145.32515 108.55589,145.69736 C 109.24491,146.06957 110.00517,146.62396 110.76544,147.17834 C 110.54371,147.57432 110.32198,147.9703 110.19527,148.45337 C 110.06856,148.93645 110.03686,149.50667 110.13188,150.04521 C 110.2269,150.58375 110.44869,151.09059 110.80505,151.43111 C 111.16142,151.77168 111.65241,151.94587 112.14347,152.12012 C 111.8742,151.80332 111.60493,151.48657 111.45445,151.13015 C 111.30397,150.77378 111.27228,150.3778 111.32774,150.02936 C 111.38315,149.68092 111.5257,149.37996 111.70788,149.10277 C 111.89005,148.82558 112.11178,148.57216 112.33351,148.31874 C 112.5236,148.55631 112.71364,148.79389 112.99083,148.96021 C 113.26802,149.12654 113.63231,149.22156 113.90158,149.5146 C 114.17085,149.80763 114.34509,150.29863 114.69354,150.76586 C 115.04198,151.23315 115.56467,151.67661 116.12697,152.04089 C 116.68928,152.40524 117.29114,152.69035 117.89306,152.97541 C 117.68712,153.59318 117.48123,154.21088 117.33075,155.00284 C 117.18027,155.7948 117.08526,156.76095 117.20404,157.66377 C 117.32283,158.56665 117.65543,159.40609 118.10687,160.06342 C 118.55831,160.72074 119.12848,161.19589 119.61161,161.52854 C 120.09468,161.86114 120.49066,162.05123 120.96582,162.20171 C 121.44102,162.35219 121.99535,162.46306 122.54973,162.57392 C 121.82116,161.95621 121.09253,161.33845 120.58568,160.75243 C 120.07884,160.16636 119.79372,159.61203 119.64324,159.10513 C 119.49276,158.59829 119.47698,158.13898 119.46113,157.67962 C 119.79372,157.72716 120.12638,157.77469 120.41936,157.65591 C 120.71239,157.53706 120.96582,157.252 121.14006,156.97481 C 121.31431,156.69762 121.40933,156.42835 121.50435,156.15909 C 121.93202,157.20447 122.35969,158.24985 122.85861,159.49325 C 123.35754,160.73659 123.92776,162.17794 124.23659,163.10454 C 124.54547,164.03113 124.59295,164.44295 124.74343,164.87057 C 124.89391,165.29824 125.14734,165.74176 125.27405,166.06643 C 125.40076,166.39116 125.40076,166.59704 125.25028,166.85839 C 125.09985,167.11973 124.79889,167.43654 124.05447,167.90377 C 123.31,168.37105 122.12206,168.98876 121.0846,169.47184 C 120.04715,169.95497 119.16017,170.30341 118.12271,170.46181 C 117.08526,170.62016 115.89732,170.58852 114.77277,170.43012 C 113.64816,170.27172 112.58693,169.9866 111.84251,169.84405 C 111.09809,169.70149 110.67042,169.70149 110.17942,169.91535 C 109.68837,170.12916 109.13404,170.55683 108.75391,170.84987 C 108.37372,171.14285 108.16783,171.30125 107.74809,171.29333 C 107.32834,171.2854 106.69478,171.11121 106.06915,171.20623 C 105.44352,171.30125 104.82581,171.66554 104.39022,172.14075 C 103.95462,172.6159 103.7012,173.20197 103.39237,173.58211 C 103.08349,173.96224 102.7192,174.13649 102.21236,174.59579 C 101.70546,175.05516 101.05606,175.79958 100.71554,176.42521 C 100.37502,177.05084 100.34333,177.55768 99.955273,178.04082 C 99.567217,178.52389 98.822797,178.9832 98.244646,179.52173 C 97.666495,180.06027 97.254727,180.67804 97.017094,181.3353 C 96.779518,181.99263 96.716191,182.68957 96.81121,183.4182 C 96.906229,184.14677 97.159651,184.90704 97.294285,185.57228 C 97.428919,186.23753 97.444765,186.80776 97.468534,187.85314 C 97.492303,188.89852 97.523938,190.41905 97.579399,191.29018 C 97.63486,192.16137 97.714033,192.3831 97.999147,192.26431 C 98.284261,192.14552 98.775259,191.68616 99.250411,191.05261 C 99.72562,190.41905 100.18493,189.61125 100.58883,189.13609 C 100.99273,188.66089 101.34117,188.51839 101.72923,188.32037 C 102.11728,188.12241 102.54495,187.86898 102.91716,187.82937 C 103.28937,187.78975 103.60618,187.964 103.98631,188.04318 C 104.36645,188.12241 104.80996,188.10656 105.21387,187.94816 C 105.61777,187.78975 105.98205,187.4888 106.4018,187.26707 C 106.82149,187.04533 107.2967,186.90278 107.67684,186.74437 C 108.05697,186.58597 108.34208,186.41178 108.6272,186.02372 C 108.91225,185.63567 109.19737,185.03375 109.66465,184.42396 C 110.13188,183.81418 110.78128,183.19641 111.44653,182.74503 C 112.11178,182.29359 112.79287,182.00847 113.33141,181.65211 C 113.86989,181.29574 114.26586,180.86807 114.58267,180.34538 C 114.89948,179.82269 115.13705,179.20498 115.21623,178.30216 C 115.29546,177.39934 115.21623,176.2114 115.23999,175.11056 C 115.26376,174.00972 115.39047,172.99603 115.66767,172.43378 C 115.94486,171.87148 116.37247,171.76061 117.03772,171.66554 C 117.70296,171.57052 118.60579,171.49135 119.45321,171.2854 C 120.30057,171.07952 121.09253,170.74687 121.837,170.32718 C 122.58142,169.90743 123.27831,169.40059 123.91984,168.98084 C 124.56132,168.56109 125.14734,168.22849 125.47206,168.1968 C 125.79674,168.16511 125.86012,168.43438 126.31943,170.79441 C 126.77879,173.15443 127.63407,177.60522 128.49734,180.67011 C 129.36055,183.73495 130.23168,185.41388 131.1345,187.22745 C 132.03738,189.04108 132.97184,190.98928 133.44705,192.32764 C 133.9222,193.66606 133.93805,194.39469 134.45281,195.23413 C 134.96758,196.07362 135.98127,197.02398 136.72575,197.67338 C 137.47017,198.32279 137.94532,198.67123 138.26212,198.64746 C 138.57887,198.62369 138.73728,198.22771 138.87191,197.82381 C 139.00654,197.4199 139.11741,197.00814 139.40252,196.95268 C 139.68764,196.89721 140.14694,197.19817 140.46375,197.12692 C 140.78055,197.05562 140.95475,196.61216 141.03398,196.01816 C 141.11315,195.42422 141.0973,194.67974 141.35073,194.0858 C 141.60415,193.49186 142.12684,193.04835 142.5862,192.98496 C 143.04551,192.92164 143.44149,193.23838 143.82162,193.49186 C 144.20175,193.74529 144.5661,193.93532 145.14419,194.37884 C 145.72234,194.8223 146.5143,195.51924 147.06868,195.67764 C 147.62301,195.83605 147.93981,195.45586 148.39912,195.30543 C 148.85848,195.15495 149.46034,195.23413 149.95926,195.02032 C 150.45824,194.80645 150.85422,194.29961 150.81461,193.49186 C 150.77499,192.68406 150.29984,191.5753 149.65836,190.11017 C 149.01688,188.6451 148.20908,186.8236 147.63885,185.57228 C 147.06868,184.32102 146.73603,183.63993 146.70434,182.99845 C 146.6727,182.35697 146.94197,181.75505 147.57552,181.12942 C 148.20908,180.50379 149.20692,179.85439 150.45032,179.17329 C 151.69366,178.4922 153.18256,177.77947 154.37049,177.11422 C 155.55843,176.44898 156.44541,175.83127 156.99187,175.34814 C 157.53833,174.86506 157.74421,174.51662 158.02932,173.94639 C 158.31444,173.37616 158.67873,172.58421 158.69457,171.67346 C 158.71042,170.76272 158.37777,169.73318 158.27482,168.94915 C 158.17188,168.16511 158.29859,167.62658 158.09265,167.00094 C 157.88677,166.37531 157.34823,165.66253 156.9681,165.24283 C 156.58797,164.82309 156.36618,164.69638 156.09697,164.43503 C 155.8277,164.17369 155.51089,163.77771 155.17038,163.47675 C 154.8298,163.17579 154.46551,162.9699 154.06953,162.85904 C 153.67356,162.74817 153.24588,162.73233 152.70735,162.70856 C 152.16887,162.68479 151.51947,162.6531 150.29192,162.44721 C 149.06436,162.24127 147.25872,161.86114 145.53225,161.02962 C 143.80583,160.19805 142.15853,158.91509 141.18446,158.21023 C 140.21033,157.50543 139.90937,157.37872 139.56093,157.50543 C 139.21248,157.63214 138.81651,158.01227 138.52347,158.38448 C 138.23043,158.75669 138.04039,159.12098 138.17503,159.50111 C 138.30966,159.8813 138.76897,160.27728 139.48968,160.87914 C 140.21033,161.48101 141.19238,162.28881 142.24563,162.81942 C 143.29893,163.35004 144.42354,163.60346 145.24713,163.99151 C 146.07078,164.37957 146.59347,164.90226 147.27456,165.22699 C 147.95566,165.55166 148.7951,165.67837 149.49204,166.01895 C 150.18897,166.35947 150.7433,166.91385 151.37691,167.61073 C 152.01047,168.30767 152.72319,169.14716 152.85783,169.88366 C 152.99246,170.62016 152.549,171.25377 151.66989,171.94273 C 150.79084,172.63174 149.47619,173.37616 148.37541,173.99393 C 147.27456,174.61164 146.38759,175.10264 145.50061,175.34021 C 144.61358,175.57785 143.7266,175.562 143.02179,175.12641 C 142.31693,174.69081 141.79424,173.83553 141.36657,172.51296 C 140.9389,171.19039 140.60631,169.40059 140.044,167.61073 C 139.48175,165.82093 138.68979,164.03113 138.0958,162.39967 C 137.50186,160.76828 137.10588,159.29523 136.85246,158.21023 C 136.59903,157.12529 136.48811,156.42835 136.49604,155.87397 C 136.50396,155.31959 136.63067,154.90782 136.71782,154.21881 C 136.80492,153.52979 136.85246,152.56358 136.74159,151.48657 C 136.63067,150.4095 136.3614,149.22156 135.85456,148.00193 C 135.34771,146.78236 134.60329,145.53104 133.6767,144.48566 C 132.75011,143.44028 131.6414,142.60084 130.12081,141.69802 C 128.60028,140.79514 126.66792,139.82899 125.14734,139.02118 C 123.6268,138.21338 122.51804,137.56398 121.94787,136.97796 C 121.37764,136.39189 121.34595,135.8692 121.4331,134.8872 C 121.5202,133.90515 121.72608,132.46379 121.98743,131.38672 C 122.24877,130.3097 122.56558,129.59692 122.77938,129.16924 C 122.99325,128.74163 123.10411,128.59907 123.51594,128.4169 C 123.92776,128.23479 124.64049,128.013 126.557,127.24481 C 128.47357,126.47662 131.59386,125.16197 135.10221,123.42758 C 138.61056,121.69324 142.50697,119.5391 146.91028,116.72768 C 151.31353,113.91622 156.22368,110.44748 160.12801,107.24796 C 164.03234,104.04849 166.9309,101.11823 169.02958,98.979936 C 171.12827,96.841695 172.42707,95.495355 173.52785,94.679628 C 174.62869,93.863901 175.53152,93.578844 176.56105,93.29373 C 177.59058,93.008616 178.74683,92.723502 179.70511,92.525541 C 180.6634,92.327523 181.42366,92.216658 181.97012,92.010774 C 182.51652,91.804833 182.84918,91.503873 183.1026,91.139586 C 183.35602,90.775299 183.53027,90.347628 183.70446,89.920014 C 184.68651,89.983341 185.66851,90.046725 187.11779,89.848707 C 188.56707,89.650746 190.48364,89.191383 192.08335,88.66077 C 193.68311,88.130157 194.96607,87.528294 196.21739,86.87097 C 197.46865,86.213646 198.68828,85.500861 199.90785,84.788133 C 200.11379,85.928532 200.31968,87.068931 200.28804,88.153926 C 200.25635,89.238921 199.98708,90.268455 199.79699,91.028721 C 199.60695,91.788987 199.49608,92.279985 199.38522,92.77104 C 200.22471,92.058255 201.06421,91.345527 201.8878,90.315993 C 202.71145,89.286402 203.51926,87.940119 204.17658,86.482914 C 204.83391,85.025709 205.34075,83.457639 205.53079,81.8658 C 205.72088,80.273961 205.59417,78.65841 205.22988,77.034879 C 204.86554,75.411348 204.26368,73.779951 203.30539,72.172266 C 202.34717,70.564638 201.03252,68.980722 200.12177,68.077899 C 199.21103,67.175019 198.70418,66.953289 198.38738,66.786963 C 198.07057,66.620694 197.94386,66.509829 197.89638,66.351426 C 197.84884,66.193023 197.88053,65.987139 197.95178,65.622795 C 198.02309,65.258508 198.13395,64.735818 198.05478,64.141878 C 197.97555,63.547881 197.70628,62.882634 197.06481,62.090676 C 196.42333,61.298718 195.40964,60.380049 193.61192,59.596014 C 191.81414,58.811979 189.23238,58.162578 186.13585,57.97254 C 183.03927,57.782445 179.42798,58.051713 175.85625,58.685268 C 172.28457,59.31888 168.75245,60.316722 165.57669,61.275006 C 162.40094,62.233233 159.58161,63.151902 157.24535,63.848841 C 154.90903,64.54578 153.0559,65.020932 151.4086,65.36145 C 149.76136,65.702025 148.32,65.907909 145.89659,66.248484 C 143.47323,66.589002 140.06783,67.064154 136.33775,67.547286 C 132.60761,68.030361 128.5528,68.521359 125.12362,69.123279 C 121.69445,69.725142 118.89096,70.437927 115.23213,71.56248 C 111.5733,72.687033 107.05913,74.223468 102.14903,76.512189 C 97.238938,78.800967 91.932808,81.842031 87.656269,84.613884 C 83.379673,87.385737 80.132668,89.888322 77.558833,91.994928 C 74.984998,94.101534 73.084276,95.812104 71.041054,97.69698 C 68.997775,99.581856 66.811996,101.64092 64.62616,103.69999 L 64.62616,103.69999 z"
   id="path2462"
   style="fill:#0a0b0c;stroke:#1f1a17;stroke-width:0.114;stroke-linecap:round;stroke-linejoin:round" />
<text
   x="42.086151"
   y="53.200733"
   transform="scale(0.91634652,1.0912902)"
   id="text3245"
   xml:space="preserve"
   style="font-size:7.97421694px;font-style:normal;font-weight:normal;fill:#000000;fill-opacity:1;stroke:none;font-family:Bitstream Vera Sans"><tspan
     x="42.086151"
     y="53.200733"
     id="tspan3247">WWW.CRAFTSMANSPACE.COM</tspan></text>

</svg>